# xmcd CD database file
#
# Track frame offsets:
#	150
#	28987
#	57027
#	97500
#	113077
#	151187
#	175262
#	200822
#	221789
#	235104
#	259416
#	286789
#
# Disc length: 4165 seconds
#
# Revision: 2
# Processed by: cddbd v1.5.1PL0 Copyright (c) Steve Scherf et al.
# Submitted via: CDex 1.51
#
DISCID=a310430c
DTITLE=John Abercrombie - November
DYEAR=1993
DGENRE=Jazz
TTITLE0=The Cat's Back
TTITLE1=J.S.
TTITLE2=Right Brain Patrol
TTITLE3=Prelude
TTITLE4=November
TTITLE5=Rise And Fall
TTITLE6=John's Waltz
TTITLE7=Ogeda
TTITLE8=Tuesday Afternoon
TTITLE9=To Be
TTITLE10=Come Rain Or Come Shine
TTITLE11=Big Music
EXTD=YEAR: 1993
EXTT0=
EXTT1=
EXTT2=
EXTT3=
EXTT4=
EXTT5=
EXTT6=
EXTT7=
EXTT8=
EXTT9=
EXTT10=
EXTT11=
PLAYORDER=
